<?xml version="1.0" encoding="UTF-8"?>
<svg id="Capa_2" xmlns="http://www.w3.org/2000/svg" viewBox="0 0 255.54 255.52">
  <defs>
    <style>
      .cls-1 {
        fill: #3872f1;
      }

      .cls-2 {
        fill: #fff;
      }
    </style>
  </defs>
  <g id="Capa_1-2" data-name="Capa_1">
    <g id="_x32_jYiyv.tif">
      <g>
        <path class="cls-1" d="M0,127.6C.05,57.14,57.35-.04,127.86,0c70.61.04,127.79,57.39,127.67,128.04-.12,70.46-57.49,127.6-127.99,127.48C57.06,255.4-.05,198.13,0,127.6ZM112.23,122.44c1.31-.82,2.34-1.48,3.39-2.12,12.27-7.47,14.27-29.95-.75-38.17-4.74-2.6-9.75-4.28-15.18-4.3-16.55-.06-33.1,0-49.65-.07-1.8,0-2.18.54-2.17,2.24.05,31.27.05,62.53,0,93.8,0,1.79.56,2.2,2.26,2.19,14.8-.06,29.6-.01,44.41-.04,8.98-.02,17.47-1.7,24.96-7.12,5.45-3.95,8.98-8.96,9.95-15.73.42-2.91.32-5.8.3-8.71-.04-7.35-3.17-13.1-9.04-17.44-2.49-1.84-5.23-3.21-8.48-4.54ZM181.51,145.26c7.82,0,15.64-.08,23.45.05,2.12.03,2.67-.67,2.69-2.68.05-4.52-.32-8.96-1.53-13.32-5.05-18.19-23.27-29.83-40.87-26.23-28.46,5.81-38.72,40.95-20.35,62.49,9.5,11.15,22.01,13.9,35.96,11.25,11.68-2.22,19.88-8.77,24.12-20.01,1.12-2.98,1.08-3.02-2.02-3.02-3.58,0-7.16.1-10.73-.04-2.09-.09-3.41.48-4.69,2.31-4.23,6.06-11.9,8.58-19.25,6.67-7.07-1.83-11.38-7.07-12.42-14.84-.28-2.1.27-2.73,2.43-2.69,7.73.12,15.47.05,23.2.05ZM171.94,84.13c-4.15,0-8.31-.07-12.46.02-2.54.05-6.1-1.16-7.35.52-1.29,1.73-.34,5.1-.45,7.75-.06,1.27.35,1.75,1.68,1.75,12.21-.04,24.43-.04,36.64,0,1.32,0,1.74-.45,1.69-1.74-.08-2.07-.12-4.16.01-6.23.11-1.63-.42-2.14-2.07-2.11-5.9.09-11.8.03-17.7.03Z"/>
        <path class="cls-2" d="M112.23,122.44c3.26,1.33,5.99,2.7,8.48,4.54,5.87,4.34,9,10.09,9.04,17.44.01,2.9.11,5.8-.3,8.71-.97,6.77-4.5,11.78-9.95,15.73-7.49,5.42-15.98,7.1-24.96,7.12-14.8.03-29.6-.02-44.41.04-1.7,0-2.26-.4-2.26-2.19.05-31.27.05-62.53,0-93.8,0-1.7.37-2.25,2.17-2.24,16.55.07,33.1,0,49.65.07,5.43.02,10.43,1.71,15.18,4.3,15.02,8.22,13.02,30.7.75,38.17-1.04.64-2.07,1.3-3.39,2.12ZM82.95,159.24v-.04c3.83,0,7.65.11,11.47-.02,6.46-.23,11.68-3.71,13.36-8.71,2.86-8.51-2.06-16.48-11.24-17.65-8.51-1.08-17.11-.23-25.66-.43-1.56-.04-1.42,1.02-1.42,2.03,0,7.65.04,15.3-.03,22.95-.02,1.63.62,1.92,2.05,1.9,3.82-.08,7.65-.03,11.48-.03ZM83.07,94.76c-4.42,0-8.08.01-11.73,0-1.08,0-1.92-.01-1.91,1.51.06,6.47.07,12.95,0,19.43-.02,1.72,1,1.56,2.11,1.56,6.06,0,12.12-.03,18.18,0,1.92.01,3.81-.12,5.69-.49,5.76-1.16,9.23-5.11,9.32-10.65.09-5.54-3.2-9.51-9.02-10.86-4.43-1.03-8.94-.22-12.63-.5Z"/>
        <path class="cls-2" d="M181.51,145.26c-7.73,0-15.47.08-23.2-.05-2.16-.03-2.71.6-2.43,2.69,1.03,7.77,5.35,13.01,12.42,14.84,7.35,1.91,15.02-.61,19.25-6.67,1.28-1.84,2.6-2.4,4.69-2.31,3.57.15,7.15.04,10.73.04,3.09,0,3.14.04,2.02,3.02-4.24,11.24-12.45,17.79-24.12,20.01-13.95,2.65-26.46-.11-35.96-11.25-18.37-21.55-8.11-56.68,20.35-62.49,17.6-3.6,35.82,8.04,40.87,26.23,1.21,4.36,1.58,8.8,1.53,13.32-.02,2-.56,2.71-2.69,2.68-7.82-.13-15.64-.05-23.45-.05ZM172,117.37c-7.54-.17-14.74,6.04-15.77,13.61-.13.94-.32,1.78,1.18,1.78,9.62-.04,19.24-.03,28.86-.01.94,0,1.23-.18,1.1-1.27-.93-7.63-7.75-13.93-15.37-14.1Z"/>
        <path class="cls-2" d="M171.94,84.13c5.9,0,11.8.05,17.7-.03,1.65-.02,2.17.48,2.07,2.11-.14,2.07-.09,4.15-.01,6.23.05,1.28-.38,1.74-1.69,1.74-12.21-.04-24.43-.04-36.64,0-1.33,0-1.74-.48-1.68-1.75.11-2.65-.84-6.01.45-7.75,1.25-1.68,4.81-.47,7.35-.52,4.15-.09,8.31-.02,12.46-.02Z"/>
        <path class="cls-1" d="M82.95,159.24c-3.83,0-7.65-.05-11.48.03-1.43.03-2.07-.27-2.05-1.9.08-7.65.04-15.3.03-22.95,0-1.01-.14-2.07,1.42-2.03,8.56.21,17.15-.64,25.66.43,9.19,1.16,14.1,9.13,11.24,17.65-1.68,5-6.9,8.48-13.36,8.71-3.82.14-7.65.02-11.47.02v.04Z"/>
        <path class="cls-1" d="M83.07,94.76c3.69.28,8.2-.53,12.63.5,5.82,1.35,9.11,5.31,9.02,10.86-.09,5.54-3.55,9.49-9.32,10.65-1.88.38-3.77.51-5.69.49-6.06-.04-12.12-.02-18.18,0-1.11,0-2.12.16-2.11-1.56.07-6.47.06-12.95,0-19.43-.01-1.52.83-1.52,1.91-1.51,3.65.02,7.31,0,11.73,0Z"/>
        <path class="cls-1" d="M172,117.37c7.62.17,14.44,6.48,15.37,14.1.13,1.09-.16,1.27-1.1,1.27-9.62-.02-19.24-.03-28.86.01-1.5,0-1.31-.84-1.18-1.78,1.03-7.57,8.22-13.78,15.77-13.61Z"/>
      </g>
    </g>
  </g>
</svg>