<?xml version="1.0" encoding="UTF-8"?>
<svg id="Capa_2" xmlns="http://www.w3.org/2000/svg" viewBox="0 0 255.51 255.5">
  <defs>
    <style>
      .cls-1 {
        fill: #fff;
      }

      .cls-2 {
        fill: #3679b3;
      }
    </style>
  </defs>
  <g id="Capa_1-2" data-name="Capa_1">
    <g id="r9vZTe.tif">
      <g>
        <path class="cls-2" d="M255.51,127.73c.02,70.46-57.17,127.69-127.67,127.77C57.31,255.57-.11,198.15,0,127.64.11,57.12,57.34-.04,127.8,0c70.5.04,127.69,57.24,127.71,127.73ZM141.33,111.69c0-4.09-.06-7.41.03-10.72.04-1.53-.28-2.2-2.03-2.18-8.81.09-17.63.08-26.45,0-1.67-.01-2.11.51-2.07,2.12.17,6.48.3,12.97.29,19.45-.05,22.54-.13,45.07-.32,67.61-.02,2.24.58,2.76,2.75,2.72,8.31-.13,16.63-.13,24.95,0,2.23.03,2.92-.49,2.9-2.83-.11-15.8-.04-31.6-.07-47.4-.01-6.05,1.36-11.46,6.08-15.72,6.93-6.25,21.33-5.76,24.76,6.59,1.03,3.72,1.44,7.5,1.44,11.33.01,15.22.04,30.44-.03,45.66,0,1.83.41,2.4,2.32,2.38,8.65-.11,17.3-.11,25.95,0,1.94.03,2.3-.6,2.3-2.39-.07-16.63-.04-33.27-.04-49.9,0-4-.32-7.97-1.01-11.91-2.84-15.99-12.38-27.55-29.2-29.46-9.6-1.09-18.56.57-26.1,7.18-2.31,2.03-4.06,4.54-6.46,7.46ZM63.42,144.7c0,14.54.03,29.08-.04,43.63,0,1.85.45,2.39,2.34,2.37,8.64-.1,17.28-.08,25.93-.01,1.64.01,2.3-.29,2.3-2.14-.06-29.17-.05-58.34,0-87.5,0-1.72-.44-2.26-2.21-2.25-8.64.09-17.29.11-25.93-.01-2.08-.03-2.43.68-2.42,2.55.07,14.46.04,28.92.04,43.38ZM61.76,70.44c0,9.23,7,15.85,16.83,15.88,10.03.03,17.27-6.55,17.29-15.72.02-9.33-7.16-16.1-16.98-16.01-10.13.1-17.13,6.58-17.14,15.84Z"/>
        <path class="cls-1" d="M141.33,111.69c2.39-2.92,4.15-5.43,6.46-7.46,7.54-6.62,16.5-8.27,26.1-7.18,16.82,1.91,26.36,13.47,29.2,29.46.7,3.93,1.01,7.91,1.01,11.91,0,16.63-.02,33.27.04,49.9,0,1.8-.36,2.42-2.3,2.39-8.65-.11-17.3-.11-25.95,0-1.91.02-2.33-.55-2.32-2.38.07-15.22.05-30.44.03-45.66,0-3.83-.41-7.61-1.44-11.33-3.43-12.35-17.84-12.83-24.76-6.59-4.73,4.26-6.09,9.67-6.08,15.72.03,15.8-.04,31.6.07,47.4.02,2.34-.68,2.87-2.9,2.83-8.31-.13-16.63-.13-24.95,0-2.17.03-2.77-.48-2.75-2.72.18-22.54.27-45.07.32-67.61.01-6.48-.12-12.97-.29-19.45-.04-1.61.4-2.14,2.07-2.12,8.82.08,17.63.08,26.45,0,1.75-.02,2.07.65,2.03,2.18-.09,3.31-.03,6.62-.03,10.72Z"/>
        <path class="cls-1" d="M63.42,144.7c0-14.46.03-28.92-.04-43.38,0-1.86.34-2.58,2.42-2.55,8.64.13,17.28.1,25.93.01,1.77-.02,2.21.53,2.21,2.25-.05,29.17-.05,58.34,0,87.5,0,1.85-.66,2.16-2.3,2.14-8.64-.07-17.29-.09-25.93.01-1.89.02-2.35-.52-2.34-2.37.08-14.54.04-29.08.04-43.63Z"/>
        <path class="cls-1" d="M61.76,70.44c0-9.27,7.01-15.74,17.14-15.84,9.81-.1,17,6.68,16.98,16.01-.02,9.17-7.26,15.75-17.29,15.72-9.82-.03-16.84-6.65-16.83-15.88Z"/>
      </g>
    </g>
  </g>
</svg>